<svg xmlns="http://www.w3.org/2000/svg" width="24" height="24" viewBox="0 0 24 24" fill="#1A1A1A"><path fill-rule="evenodd" d="M12 4C7.58 4 4 7.58 4 12C4 16.42 7.58 20 12 20C16.42 20 20 16.42 20 12C20 7.58 16.42 4 12 4ZM2 12C2 6.48 6.48 2 12 2C17.52 2 22 6.48 22 12C22 17.52 17.52 22 12 22C6.48 22 2 17.52 2 12ZM12 6C12.55 6 13 6.45 13 7V7.21H13.88C14.43 7.21 14.88 7.66 14.88 8.21C14.88 8.76 14.43 9.21 13.88 9.21H11.13C10.58 9.21 10.19 9.64 10.19 10.09C10.19 10.55 10.58 10.97 11.13 10.97H12.38C13.9 10.97 15.19 12.18 15.19 13.73C15.19 15.06 14.24 16.14 13 16.42V17C13 17.55 12.55 18 12 18C11.45 18 11 17.55 11 17V16.48H9.5C8.95 16.48 8.5 16.04 8.5 15.48C8.5 14.93 8.95 14.48 9.5 14.48H12.38C12.85 14.48 13.19 14.12 13.19 13.73C13.19 13.34 12.85 12.97 12.38 12.97H11.13C9.53 12.97 8.19 11.71 8.19 10.09C8.19 8.52 9.46 7.28 11 7.21V7C11 6.45 11.45 6 12 6Z"/></svg>
