<svg width="200" height="200" viewBox="0 0 200 200" fill="none" xmlns="http://www.w3.org/2000/svg">
<path d="M49.2332 156.729C47.2286 152.875 44.3921 148.191 39.9519 142.285C38.1677 139.913 36.4638 137.36 34.9504 134.688C34.4492 133.797 33.9581 132.896 33.4971 131.975C33.036 131.054 32.605 130.134 32.194 129.193C31.7931 128.252 31.4122 127.311 31.0714 126.36C30.7307 125.409 30.4199 124.448 30.1493 123.477C30.009 122.997 29.8887 122.506 29.7684 122.026C29.1871 119.594 28.8463 117.141 28.8163 114.689C28.7561 108.813 30.4801 102.958 34.8803 97.5927C35.221 97.1723 35.5717 96.7819 35.9125 96.4016C36.0228 96.2814 36.1331 96.1713 36.2434 96.0512C36.4839 95.801 36.7245 95.5508 36.975 95.3105C37.1053 95.1904 37.2356 95.0703 37.3659 94.9502C37.6065 94.73 37.837 94.5198 38.0775 94.3096C38.2078 94.1995 38.3281 94.0894 38.4584 93.9793C38.709 93.7691 38.9696 93.5689 39.2202 93.3787C39.3304 93.2986 39.4407 93.2085 39.5509 93.1285C39.8716 92.8882 40.2024 92.668 40.5331 92.4478C40.5732 92.4178 40.6234 92.3877 40.6634 92.3577C41.0343 92.1175 41.4053 91.8973 41.7761 91.6871C41.8964 91.617 42.0167 91.557 42.1369 91.4869C42.3274 91.3868 42.5178 91.2767 42.7082 91.1766C44.793 90.1256 46.8778 89.485 48.8824 89.1347C47.4592 86.9526 46.2663 84.24 45.4244 80.8668C45.3943 80.7367 45.3543 80.6266 45.3242 80.4965C45.1939 79.9659 45.1037 79.4555 45.0135 78.935C44.9935 78.8149 44.9734 78.6947 44.9533 78.5746C44.8832 78.0842 44.8131 77.6037 44.773 77.1232C44.763 77.0131 44.7529 76.893 44.7529 76.7829C44.7229 76.3725 44.7028 75.9722 44.7028 75.5718C44.7028 75.4617 44.7028 75.3516 44.7028 75.2515C44.7028 74.801 44.7229 74.3606 44.7429 73.9202C44.7429 73.7801 44.763 73.6499 44.773 73.5098C44.8131 73.0794 44.8532 72.649 44.9133 72.2286C44.9234 72.1485 44.9433 72.0684 44.9533 71.9884C45.0135 71.608 45.0837 71.2477 45.1639 70.8773C45.194 70.7572 45.214 70.6271 45.2441 70.507C45.3443 70.1066 45.4445 69.7062 45.5647 69.3158C45.5948 69.2057 45.6349 69.0956 45.675 68.9855C45.7852 68.6452 45.9056 68.3149 46.0359 67.9846C46.066 67.9045 46.096 67.8244 46.1261 67.7443C46.2764 67.364 46.4468 67.0036 46.6172 66.6333C46.6673 66.5232 46.7175 66.4231 46.7776 66.313C46.948 65.9626 47.1283 65.6223 47.3188 65.282C48.3612 63.4703 49.6542 61.8788 51.0975 60.5175V60.4974C51.1877 60.4174 51.2779 60.3473 51.3681 60.2672C51.5886 60.067 51.7991 59.8769 52.0297 59.6967C52.17 59.5866 52.3002 59.4765 52.4405 59.3664C52.6711 59.1862 52.9117 59.006 53.1523 58.8359C53.2926 58.7358 53.4228 58.6457 53.5631 58.5456C53.8137 58.3754 54.0643 58.2153 54.3249 58.0551C54.4552 57.975 54.5855 57.895 54.7158 57.8149C54.9864 57.6547 55.2571 57.5046 55.5377 57.3645C55.658 57.3044 55.7783 57.2343 55.8986 57.1743C56.1993 57.0241 56.51 56.884 56.8107 56.7539C56.9009 56.7138 57.001 56.6738 57.0912 56.6338C57.9031 56.3035 58.705 56.0432 59.5169 55.853C59.6071 55.833 59.6873 55.823 59.7775 55.803C60.0882 55.7329 60.3889 55.6729 60.6996 55.6328C60.84 55.6128 60.9902 55.6028 61.1306 55.5828C61.3711 55.5527 61.6217 55.5327 61.8622 55.5127C62.0226 55.5127 62.1829 55.5127 62.3433 55.5027C62.5638 55.5027 62.7743 55.5027 62.9848 55.5027C63.1552 55.5027 63.3256 55.5227 63.486 55.5427C63.6864 55.5628 63.887 55.5828 64.0774 55.6128C64.2478 55.6328 64.4182 55.6629 64.5786 55.7029C64.769 55.7429 64.9493 55.783 65.1298 55.833C65.3001 55.8731 65.4605 55.9231 65.6209 55.9731C65.8013 56.0332 65.9717 56.0933 66.1421 56.1633C66.3025 56.2234 66.4528 56.2934 66.6031 56.3635C66.7735 56.4436 66.9339 56.5337 67.0942 56.6238C67.2346 56.7038 67.3849 56.7839 67.5152 56.874C67.6856 56.9841 67.846 57.1142 68.0064 57.2343C68.1266 57.3244 68.2469 57.4045 68.3571 57.5046C68.5877 57.7048 68.8082 57.925 69.0187 58.1652C69.0488 58.1953 69.0888 58.2253 69.1189 58.2653C69.139 58.2853 69.149 58.3054 69.1691 58.3354C69.4096 58.6157 69.6302 58.8959 69.8407 59.1762C69.9208 59.2763 69.9809 59.3764 70.0511 59.4765C70.2015 59.6867 70.3517 59.9069 70.482 60.1171C70.5422 60.2172 70.6024 60.3073 70.6625 60.4074C70.8128 60.6576 70.9532 60.9078 71.0735 61.1581C71.1035 61.2081 71.1235 61.2582 71.1536 61.3082C71.304 61.6185 71.4443 61.9288 71.5646 62.2291C71.5646 62.2291 71.5646 62.2491 71.5746 62.2591C74.0002 68.465 69.9609 73.8101 69.2192 74.721C69.1491 74.811 69.0988 74.8611 69.0988 74.8611C69.0988 74.8611 76.8969 73.5398 80.2446 80.076C83.7025 79.3153 87.5313 79.2553 91.6107 80.4764C93.1543 80.9369 94.5775 81.5174 95.8705 82.1981V55.0623C95.8705 52.1395 97.6746 49.537 100.371 48.466C100.371 48.466 100.361 48.456 100.351 48.446C100.291 48.2758 100.381 48.0857 100.561 48.0256L122.371 40.4384C122.111 34.5728 120.467 28.7373 117.31 23.4422C108.299 8.3479 89.8767 2.70254 73.5993 8.72826C74.5515 12.1515 76.5962 16.4156 80.9562 17.3565C80.9562 17.3565 76.997 18.998 74.9924 24.283C72.9677 29.548 72.4667 36.4746 72.4667 36.4746C72.4667 36.4746 72.7874 18.3474 64.2979 17.3565C66.4929 16.836 70.4019 14.5538 72.0356 9.34885C70.0812 10.1696 68.1668 11.1506 66.3125 12.3217C45.5548 25.294 30.5402 45.8135 24.4262 69.6461C18.1517 92.698 21.5395 117.321 33.7676 137.781C38.0073 144.868 43.2294 151.224 49.2031 156.699L49.2332 156.729ZM94.2568 22.6115C94.2568 22.6115 94.7278 31.2196 100.351 32.4408C100.351 32.4408 97.4041 33.662 95.9006 37.5957C94.3971 41.5294 94.0163 46.6843 94.0163 46.6843C94.0163 46.6843 94.2567 33.1715 87.9222 32.4308C90.037 31.9403 94.2568 29.2878 94.2568 22.6014V22.6115ZM81.0664 45.4431C81.0664 45.4431 81.4373 52.0294 85.7372 52.9603C85.7372 52.9603 83.4619 53.9012 82.3193 56.904C81.1867 59.9069 80.886 63.8506 80.886 63.8506C80.886 63.8506 81.0665 53.5208 76.2253 52.9503C77.8391 52.5699 81.0664 50.548 81.0664 45.4331V45.4431Z" fill="#FFD7D6"/>
<path d="M171.154 113.248H171.144C170.973 112.958 170.783 112.687 170.602 112.407V152.225C177.789 140.484 178.511 125.45 171.154 113.248Z" fill="#FFD7D6"/>
<path d="M95.8906 172.514C95.8004 172.554 95.7202 172.604 95.63 172.644C95.4997 172.704 95.3794 172.774 95.2491 172.834C94.9684 172.965 94.6677 173.095 94.367 173.225C94.2067 173.295 94.0564 173.365 93.896 173.435C93.6153 173.555 93.3246 173.665 93.0339 173.785C92.8435 173.865 92.6631 173.935 92.4626 174.016C92.202 174.116 91.9213 174.216 91.6507 174.306C91.4202 174.386 91.1897 174.476 90.9492 174.556C90.6986 174.646 90.438 174.726 90.1774 174.806C89.8967 174.896 89.6362 174.986 89.3455 175.077C89.0949 175.157 88.8343 175.227 88.5737 175.297C88.273 175.387 87.9723 175.477 87.6616 175.567C87.401 175.637 87.1304 175.707 86.8698 175.777C86.5391 175.867 86.2182 175.947 85.8875 176.037C85.5968 176.108 85.2862 176.178 84.9855 176.248C86.2985 176.588 87.6215 176.908 88.9646 177.179C91.3601 177.699 93.7756 178.099 96.1912 178.43C96.0108 177.879 95.9006 177.309 95.9006 176.698V172.524L95.8906 172.514Z" fill="#FFD7D6"/>
<path d="M80.886 63.8609C80.886 63.8609 81.1867 59.9172 82.3193 56.9143C83.4619 53.9115 85.7372 52.9706 85.7372 52.9706C81.4373 52.0397 81.0664 45.4534 81.0664 45.4534C81.0664 50.5683 77.8391 52.6002 76.2253 52.9706C81.0665 53.5411 80.886 63.8709 80.886 63.8709V63.8609Z" fill="#FCA823"/>
<path d="M64.3178 17.3866C72.8074 18.3775 72.4865 36.5047 72.4865 36.5047C72.4865 36.5047 72.9877 29.5781 75.0124 24.3131C77.017 19.0281 80.9761 17.3866 80.9761 17.3866C76.6161 16.4357 74.5713 12.1816 73.6191 8.75837C72.9275 6.25599 72.8073 4.19403 72.8073 4.19403C72.8073 6.18593 72.5167 7.88754 72.0556 9.37896C70.4218 14.5839 66.5229 16.8761 64.3178 17.3866Z" fill="#FCA823"/>
<path d="M94.0163 46.6946C94.0163 46.6946 94.3971 41.5397 95.9006 37.6059C97.4041 33.6722 100.351 32.451 100.351 32.451C94.7278 31.2299 94.2568 22.6217 94.2568 22.6217C94.2568 29.308 90.037 31.9606 87.9222 32.451C94.2567 33.1917 94.0163 46.7046 94.0163 46.7046V46.6946Z" fill="#FCA823"/>
<path d="M45.1737 70.8876C45.2038 70.7675 45.2239 70.6374 45.254 70.5173C45.2239 70.6374 45.2038 70.7575 45.1737 70.8876Z" fill="#427100"/>
<path d="M44.743 73.9305C44.743 73.7904 44.7631 73.6603 44.7731 73.5201C44.7631 73.6503 44.7531 73.7904 44.743 73.9305Z" fill="#427100"/>
<path d="M44.7127 75.5921C44.7127 75.482 44.7127 75.3719 44.7127 75.2718C44.7127 75.3819 44.7127 75.492 44.7127 75.5921Z" fill="#427100"/>
<path d="M46.6172 66.6535C46.6673 66.5433 46.7175 66.4432 46.7776 66.3331C46.7275 66.4432 46.6774 66.5433 46.6172 66.6535Z" fill="#427100"/>
<path d="M45.5748 69.3359C45.6048 69.2258 45.6449 69.1157 45.685 69.0056C45.6449 69.1157 45.6149 69.2258 45.5748 69.3359Z" fill="#427100"/>
<path d="M45.4346 80.8772C46.2765 84.2404 47.4693 86.963 48.8926 89.1451C47.4693 86.963 46.2765 84.2504 45.4346 80.8772Z" fill="#427100"/>
<path d="M67.4952 86.6124C69.149 85.2511 71.2439 83.7797 73.6795 82.5185C69.9108 77.6839 62.8145 77.1734 62.8145 77.1734C66.0119 75.5519 68.0264 74.9413 69.2492 74.7411C69.9909 73.8302 74.0302 68.4852 71.6046 62.2793C64.0673 60.7278 66.984 65.5323 58.2138 66.7035C49.6541 67.8546 51.0374 60.8679 51.1075 60.5376C49.6642 61.8889 48.3712 63.4804 47.3288 65.3021C53.5231 80.3965 60.3888 79.1152 67.4952 86.6124Z" fill="#427100"/>
<path d="M80.2746 80.1061C76.9169 73.5699 69.1289 74.8911 69.1289 74.8911C69.1289 74.8911 76.9269 73.5699 80.2746 80.1061Z" fill="#427100"/>
<path d="M70.6826 60.4374C70.8329 60.6876 70.9733 60.9379 71.0935 61.1881C70.9632 60.9379 70.8329 60.6876 70.6826 60.4374Z" fill="#427100"/>
<path d="M51.3681 60.2973C51.5886 60.0971 51.7992 59.9069 52.0297 59.7268C51.8092 59.917 51.5886 60.1071 51.3681 60.2973Z" fill="#427100"/>
<path d="M69.1791 58.3558C69.4197 58.6361 69.6501 58.9164 69.8506 59.1966C69.6401 58.9164 69.4197 58.6361 69.1791 58.3558Z" fill="#427100"/>
<path d="M65.6209 55.9932C65.8013 56.0533 65.9717 56.1134 66.1421 56.1834C65.9717 56.1134 65.8013 56.0433 65.6209 55.9932Z" fill="#427100"/>
<path d="M68.3672 57.5347C68.5977 57.7349 68.8183 57.9552 69.0287 58.1954C68.8183 57.9652 68.5977 57.7449 68.3672 57.5347Z" fill="#427100"/>
<path d="M59.7673 55.833C60.078 55.7629 60.3788 55.7029 60.6895 55.6629C60.3888 55.7029 60.078 55.773 59.7673 55.833Z" fill="#427100"/>
<path d="M54.7157 57.8351C54.9863 57.675 55.257 57.5248 55.5376 57.3847C55.267 57.5248 54.9863 57.675 54.7157 57.8351Z" fill="#427100"/>
<path d="M55.8885 57.1947C56.1892 57.0445 56.5 56.9044 56.8007 56.7743C56.49 56.9044 56.1892 57.0445 55.8885 57.1947Z" fill="#427100"/>
<path d="M61.1205 55.6132C61.3611 55.5831 61.6116 55.5631 61.8522 55.5431C61.6116 55.5531 61.3711 55.5831 61.1205 55.6132Z" fill="#427100"/>
<path d="M52.4404 59.3868C52.6709 59.2066 52.9116 59.0265 53.1521 58.8563C52.9116 59.0265 52.681 59.2066 52.4404 59.3868Z" fill="#427100"/>
<path d="M62.3333 55.5328C62.5538 55.5328 62.7643 55.5328 62.9748 55.5328C62.7643 55.5328 62.5438 55.5328 62.3333 55.5328Z" fill="#427100"/>
<path d="M73.6793 82.5287C75.6639 81.5077 77.8791 80.6366 80.2746 80.1061C76.9169 73.5699 69.1289 74.8911 69.1289 74.8911C69.1289 74.8911 69.1789 74.8414 69.2491 74.7513C68.0263 74.9515 66.0117 75.5521 62.8144 77.1836C62.8144 77.1836 69.9107 77.6941 73.6793 82.5287Z" fill="#87CA22"/>
<path d="M58.2037 66.7135C66.9738 65.5424 64.0572 60.7378 71.5946 62.2893C71.5946 62.2893 71.5946 62.2692 71.5845 62.2592C71.4643 61.959 71.3239 61.6487 71.1736 61.3384C71.1535 61.2883 71.1236 61.2382 71.0935 61.1881C70.9632 60.9379 70.8229 60.6876 70.6826 60.4374C70.6224 60.3373 70.5621 60.2473 70.502 60.1472C70.3717 59.937 70.2214 59.7168 70.0711 59.5066C70.0009 59.4065 69.9306 59.3064 69.8605 59.2063C69.65 58.9261 69.4296 58.6458 69.189 58.3655C69.169 58.3455 69.1589 58.3255 69.1389 58.2955C69.1088 58.2554 69.0687 58.2354 69.0387 58.1954C68.8282 57.9652 68.6076 57.7449 68.3771 57.5347C68.2668 57.4347 68.1366 57.3546 68.0263 57.2645C67.8659 57.1444 67.7056 57.0143 67.5352 56.9042C67.3949 56.8141 67.2545 56.734 67.1142 56.6539C66.9538 56.5638 66.7935 56.4737 66.6231 56.3937C66.4727 56.3236 66.3124 56.2635 66.162 56.1935C65.9916 56.1234 65.8212 56.0533 65.6408 56.0033C65.4805 55.9532 65.3201 55.9032 65.1497 55.8632C64.9693 55.8131 64.7888 55.7731 64.5984 55.733C64.428 55.703 64.2676 55.673 64.0972 55.643C63.9068 55.6129 63.7064 55.5929 63.5059 55.5729C63.3355 55.5629 63.1751 55.5429 63.0048 55.5328C62.7943 55.5328 62.5737 55.5328 62.3633 55.5328C62.2029 55.5328 62.0425 55.5328 61.8822 55.5429C61.6416 55.5529 61.4011 55.5829 61.1505 55.6129C61.0102 55.6329 60.8598 55.643 60.7195 55.663C60.4188 55.703 60.1081 55.7731 59.7974 55.8331C59.7072 55.8532 59.627 55.8632 59.5368 55.8832C58.735 56.0734 57.9231 56.3336 57.1112 56.6639C57.021 56.704 56.9207 56.744 56.8305 56.784C56.5198 56.9142 56.2192 57.0543 55.9185 57.2044C55.7982 57.2645 55.678 57.3346 55.5577 57.3946C55.2871 57.5347 55.0064 57.6849 54.7357 57.845C54.6054 57.9251 54.4751 58.0052 54.3448 58.0853C54.0942 58.2454 53.8336 58.4056 53.5831 58.5757C53.4427 58.6658 53.3125 58.7659 53.1722 58.866C52.9317 59.0362 52.701 59.2163 52.4605 59.3965C52.3202 59.5066 52.1799 59.6167 52.0496 59.7268C51.8291 59.907 51.6086 60.1072 51.3881 60.2974C51.2979 60.3774 51.2076 60.4475 51.1174 60.5276C51.1174 60.5276 51.1174 60.5276 51.1174 60.5476C51.0473 60.8779 49.6641 67.8646 58.2237 66.7135H58.2037Z" fill="#87CA22"/>
<path d="M63.2355 90.7065C63.2355 90.7065 64.779 88.8247 67.4853 86.6126C60.3789 79.1155 53.5131 80.3967 47.3189 65.3024C47.1285 65.6327 46.948 65.9828 46.7776 66.3331C46.7275 66.4432 46.6774 66.5433 46.6172 66.6535C46.4468 67.0138 46.2766 67.3844 46.1262 67.7647C46.0961 67.8448 46.0661 67.9249 46.036 68.0049C45.9057 68.3353 45.7954 68.6656 45.6751 69.0059C45.635 69.116 45.605 69.2261 45.5649 69.3362C45.4446 69.7266 45.3344 70.117 45.2442 70.5273C45.2141 70.6475 45.1841 70.7676 45.164 70.8977C45.0839 71.258 45.0136 71.6284 44.9535 72.0088C44.9435 72.0888 44.9235 72.1689 44.9135 72.249C44.8533 72.6694 44.8032 73.0998 44.7731 73.5302C44.7631 73.6603 44.7531 73.8005 44.743 73.9406C44.713 74.381 44.7029 74.8214 44.7029 75.2719C44.7029 75.382 44.7029 75.4921 44.7029 75.5922C44.7029 75.9925 44.723 76.3929 44.7531 76.8033C44.7531 76.9134 44.7631 77.0335 44.7731 77.1436C44.8132 77.6241 44.8733 78.1045 44.9535 78.595C44.9735 78.7151 44.9936 78.8352 45.0137 78.9554C45.1039 79.4658 45.204 79.9863 45.3243 80.5168C45.3544 80.647 45.3945 80.7571 45.4245 80.8872C46.2665 84.2504 47.4593 86.973 48.8826 89.155C56.6604 87.7937 63.2255 90.7265 63.2255 90.7265L63.2355 90.7065Z" fill="#154202"/>
<path d="M95.249 172.824C94.9683 172.955 94.6676 173.085 94.3669 173.215C94.6676 173.085 94.9583 172.955 95.249 172.824Z" fill="#F57A00"/>
<path d="M92.4626 174.005C92.202 174.105 91.9213 174.205 91.6507 174.296C91.9213 174.195 92.202 174.105 92.4626 174.005Z" fill="#F57A00"/>
<path d="M38.0776 94.2996C38.2079 94.1895 38.3281 94.0794 38.4584 93.9693C38.3281 94.0794 38.1978 94.1895 38.0776 94.2996Z" fill="#F57A00"/>
<path d="M40.5332 92.4382C40.5332 92.4382 40.6234 92.3781 40.6635 92.3481C40.6234 92.3781 40.5732 92.4082 40.5332 92.4382Z" fill="#F57A00"/>
<path d="M87.6614 175.557C87.4008 175.627 87.1303 175.697 86.8697 175.767C87.1303 175.697 87.4008 175.637 87.6614 175.557Z" fill="#F57A00"/>
<path d="M29.7584 122.016C29.177 119.584 28.8363 117.131 28.8062 114.679C28.8363 117.131 29.167 119.584 29.7584 122.016Z" fill="#F57A00"/>
<path d="M95.8906 172.514C95.8004 172.554 95.7202 172.604 95.63 172.644C95.7202 172.604 95.8104 172.554 95.8906 172.514Z" fill="#F57A00"/>
<path d="M89.3456 175.066C89.095 175.146 88.8344 175.216 88.5738 175.287C88.8344 175.216 89.095 175.136 89.3456 175.066Z" fill="#F57A00"/>
<path d="M93.8959 173.425C93.6152 173.545 93.3244 173.655 93.0338 173.775C93.3244 173.665 93.6152 173.545 93.8959 173.425Z" fill="#F57A00"/>
<path d="M39.9419 142.275C44.3822 148.181 47.2187 152.865 49.2233 156.719C51.5186 161.123 52.7114 164.436 53.8941 167.189C51.679 162.044 49.4538 154.937 39.9419 142.275Z" fill="#F57A00"/>
<path d="M81.7782 149.552C81.7782 149.552 80.8862 162.064 95.8907 165.508V111.436C93.0642 111.706 89.3757 111.026 85.1259 109.244C75.4437 105.19 72.587 92.7584 78.2801 86.8128C83.9632 80.8671 91.9616 85.1912 91.9616 85.1912H91.9716C93.4951 86.2322 94.7882 87.2732 95.8907 88.2942V82.2184C94.5977 81.5478 93.1744 80.9672 91.6309 80.4968C87.5515 79.2756 83.7226 79.3357 80.2647 80.0964C77.8692 80.6269 75.6541 81.4977 73.6695 82.5187C71.2339 83.7699 69.1391 85.2513 67.4853 86.6126C64.779 88.8247 63.2355 90.7065 63.2355 90.7065C63.2355 90.7065 56.6805 87.7737 48.8926 89.135C46.888 89.4853 44.7931 90.1259 42.7183 91.1769C33.8179 125.319 94.8282 105.45 81.7782 149.552Z" fill="#F57A00"/>
<path d="M33.4869 131.975C33.0259 131.054 32.5948 130.134 32.1839 129.193C32.5848 130.134 33.0259 131.054 33.4869 131.975Z" fill="#F57A00"/>
<path d="M34.9405 134.678C34.4393 133.787 33.9482 132.886 33.4872 131.965C33.9482 132.886 34.4293 133.787 34.9405 134.678Z" fill="#F57A00"/>
<path d="M84.0231 176.448C84.3538 176.378 84.6546 176.298 84.9753 176.228C85.276 176.158 85.5868 176.087 85.8774 176.017C85.276 176.168 84.6545 176.308 84.013 176.448H84.0231Z" fill="#F57A00"/>
<path d="M91.9614 85.2011C91.9614 85.2011 83.9629 80.877 78.2799 86.8227C72.5868 92.7683 75.4434 105.2 85.1257 109.254C89.3755 111.036 93.0639 111.716 95.8904 111.446V88.3141C94.7879 87.2831 93.4949 86.2521 91.9714 85.2011H91.9614Z" fill="#FCA823"/>
<path d="M85.8875 176.017C86.2283 175.937 86.5491 175.847 86.8699 175.757C87.1305 175.687 87.401 175.627 87.6616 175.547C87.9723 175.457 88.273 175.367 88.5737 175.277C88.8343 175.207 89.095 175.127 89.3455 175.057C89.6262 174.966 89.8968 174.876 90.1774 174.786C90.438 174.706 90.6986 174.626 90.9492 174.536C91.1898 174.456 91.4202 174.366 91.6508 174.286C91.9214 174.186 92.2021 174.096 92.4627 173.995C92.6531 173.925 92.8435 173.845 93.0339 173.765C93.3246 173.655 93.6154 173.535 93.896 173.415C94.0564 173.345 94.2067 173.275 94.3671 173.205C94.6678 173.075 94.9585 172.945 95.2491 172.814C95.3794 172.754 95.4997 172.694 95.63 172.624C95.7202 172.584 95.8104 172.534 95.8906 172.494V165.497C80.8861 162.054 81.7781 149.542 81.7781 149.542C94.8281 105.44 33.8178 125.309 42.7183 91.1668C42.5278 91.2669 42.3375 91.367 42.147 91.4771C42.0267 91.5472 41.9064 91.6072 41.7861 91.6773C41.4152 91.8875 41.0444 92.1077 40.6735 92.3479C40.6334 92.3779 40.5833 92.408 40.5432 92.438C40.2125 92.6482 39.8918 92.8784 39.561 93.1187C39.4507 93.1987 39.3405 93.2888 39.2303 93.3689C38.9697 93.5591 38.7191 93.7593 38.4685 93.9695C38.3382 94.0796 38.2079 94.1897 38.0876 94.2998C37.8471 94.51 37.6066 94.7202 37.376 94.9404C37.2457 95.0605 37.1154 95.1806 36.9851 95.3007C36.7446 95.541 36.494 95.7912 36.2535 96.0414C36.1432 96.1615 36.0329 96.2716 35.9226 96.3918C35.5718 96.7721 35.2311 97.1625 34.8903 97.5829C30.4902 102.958 28.7662 108.804 28.8263 114.679C28.8564 117.131 29.1871 119.584 29.7785 122.016C29.8988 122.507 30.019 122.987 30.1594 123.467C30.43 124.438 30.7407 125.399 31.0815 126.35C31.4223 127.301 31.8032 128.252 32.2041 129.183C32.605 130.124 33.0461 131.045 33.5072 131.966C33.9682 132.886 34.4493 133.787 34.9604 134.678C36.4739 137.351 38.1879 139.903 39.9619 142.275C49.4738 154.927 51.699 162.044 53.9141 167.189C56.1392 172.334 63.7466 180.872 84.0433 176.448C84.6748 176.308 85.2962 176.168 85.9076 176.017H85.8875Z" fill="#A14000"/>
<path d="M161.702 37.2858V67.3043L161.722 67.1942L170.602 68.9659V39.5279C170.602 36.4049 165.882 34.4931 162.674 33.0117L157.843 30.7696C158.084 30.9097 158.324 31.0498 158.555 31.22C160.549 32.6313 161.702 34.8535 161.702 37.2958V37.2858Z" fill="#968486"/>
<path d="M161.702 67.8248V177.679C161.702 177.859 161.552 178.009 161.371 178.009C161.371 178.009 161.361 178.009 161.351 178.009C161.231 180.612 159.727 182.824 157.572 183.975L163.466 181.373C166.403 179.861 170.602 177.269 170.602 174.426V69.4864L170.582 69.5965L161.702 67.8248ZM167.656 172.584C167.656 173.135 167.225 173.765 166.673 174.006C166.132 174.246 165.671 173.986 165.671 173.425C165.671 172.865 166.122 172.224 166.673 171.994C167.225 171.764 167.656 172.034 167.656 172.584ZM167.656 167.53C167.656 168.08 167.225 168.691 166.673 168.891C166.132 169.101 165.671 168.811 165.671 168.25C165.671 167.69 166.122 167.079 166.673 166.879C167.225 166.689 167.656 166.979 167.656 167.52V167.53ZM166.673 163.776C166.132 163.946 165.671 163.646 165.671 163.085C165.671 162.525 166.122 161.934 166.673 161.774C167.225 161.614 167.656 161.924 167.656 162.475C167.656 163.025 167.225 163.606 166.673 163.786V163.776ZM169.149 157.75C169.149 157.9 169.049 158.031 168.908 158.061L163.857 159.842C163.857 159.842 163.807 159.842 163.787 159.842C163.717 159.842 163.646 159.812 163.596 159.772C163.516 159.712 163.476 159.622 163.476 159.522V125.92C163.476 125.82 163.516 125.73 163.596 125.67C163.666 125.61 163.777 125.59 163.867 125.61L168.908 125.059C169.049 125.089 169.149 125.219 169.149 125.369V157.75Z" fill="#968486"/>
<path d="M168.518 125.82L164.107 126.32V159.131L168.518 157.5V125.82Z" fill="#968486"/>
<path d="M168.909 125.069L163.867 125.62C163.777 125.6 163.666 125.62 163.596 125.68C163.516 125.74 163.476 125.83 163.476 125.93V159.532C163.476 159.632 163.516 159.722 163.596 159.782C163.646 159.822 163.717 159.852 163.787 159.852C163.787 159.852 163.837 159.852 163.857 159.852L168.909 158.07C169.049 158.04 169.149 157.91 169.149 157.76V125.379C169.149 125.229 169.049 125.109 168.909 125.069ZM164.107 159.131V126.32L168.518 125.82V157.5L164.108 159.141L164.107 159.131Z" fill="#554D50"/>
<path d="M161.361 178.009C161.191 177.999 161.051 177.859 161.051 177.689V37.2857C161.051 35.0535 159.998 33.0416 158.184 31.7504C156.36 30.4592 154.105 30.1389 152 30.8696L100.802 48.6765C100.642 48.7365 100.471 48.6465 100.401 48.4963C97.7049 49.5773 95.9007 52.1698 95.9007 55.0926V176.688C95.9007 177.289 96.0209 177.869 96.1913 178.42C96.9029 180.642 98.9176 182.293 101.373 182.404L153.914 184.796C155.237 184.856 156.49 184.546 157.583 183.965C159.747 182.814 161.251 180.602 161.361 177.999V178.009ZM124.146 43.6617C125.028 43.6617 125.739 44.6627 125.739 45.9038C125.739 47.145 125.028 48.146 124.146 48.146C123.264 48.146 122.552 47.145 122.552 45.9038C122.552 44.6627 123.264 43.6617 124.146 43.6617ZM153.343 180.302L100.571 178.029C99.1281 177.969 97.9855 176.778 97.9855 175.337V54.6622C97.9855 53.1007 98.9978 51.7194 100.491 51.2289L111.086 47.8157L113.772 51.1288C115.115 52.34 116.989 52.7704 118.733 52.2599L133.477 47.9358C135.061 47.4753 136.324 46.2842 136.895 44.7327L138.178 41.2194L139.07 38.7871L153.553 34.1227C154.987 33.6622 156.46 34.7232 156.46 36.2247V177.309C156.46 179.01 155.037 180.362 153.343 180.292V180.302Z" fill="#201418"/>
<path d="M100.371 48.466C100.371 48.466 100.381 48.4761 100.391 48.4861C100.461 48.6363 100.632 48.7264 100.792 48.6663L151.99 30.8594C154.094 30.1287 156.35 30.449 158.174 31.7402C159.988 33.0314 161.04 35.0434 161.04 37.2755V177.669C161.04 177.839 161.181 177.979 161.351 177.989C161.351 177.989 161.361 177.989 161.371 177.989C161.552 177.989 161.702 177.839 161.702 177.659V67.8045L161.612 67.7845L161.702 67.274V37.2555C161.702 34.8131 160.549 32.591 158.555 31.1797C158.324 31.0195 158.084 30.8694 157.843 30.7293C155.989 29.6983 153.824 29.5081 151.769 30.2188L100.581 48.0257C100.401 48.0857 100.311 48.2759 100.371 48.4461L100.371 48.466Z" fill="#FFF7F8"/>
<path d="M156.46 36.2445C156.46 34.7431 154.986 33.672 153.553 34.1425L139.07 38.8069L138.178 41.2392L153.292 36.1444L126.02 84.4503C127.112 84.6004 128.145 85.0408 129.017 85.8216L137.266 93.1986L135.672 93.4288C134.549 93.589 133.427 94.1795 132.645 95.1304C132.635 95.1204 125.479 103.719 124.837 104.489C124.607 104.75 124.326 104.9 124.035 104.93C123.745 104.96 123.454 104.87 123.243 104.659C122.772 104.199 119.695 101.166 117.701 99.1843L116.418 101.466C118.392 103.438 121.149 106.201 121.6 106.641C122.261 107.302 123.143 107.582 124.045 107.502C124.937 107.412 125.839 106.952 126.531 106.141C129.127 103.068 131.783 99.955 134.469 96.742C134.6 96.5818 134.77 96.4517 134.95 96.3516C135.171 96.2315 135.421 96.1614 135.682 96.1214L139.922 95.5508L145.996 100.976C149.193 103.829 149.193 109.084 145.996 112.527L139.922 119.083L135.682 119.293C135.421 119.303 135.171 119.273 134.95 119.203C134.77 119.133 134.6 119.033 134.469 118.903C131.783 116.19 129.127 113.568 126.531 110.975C125.839 110.295 124.937 109.995 124.045 110.075C123.143 110.155 122.261 110.595 121.6 111.386C120.888 112.227 114.393 119.924 114.393 119.944C114.283 120.084 114.142 120.184 113.982 120.264C113.792 120.354 113.581 120.404 113.361 120.414L109.883 120.585L107.257 117.682L99.8195 130.844V56.1734C99.8195 54.9723 100.591 53.9013 101.734 53.5209L112.719 49.8174L111.095 47.8155L100.501 51.2287C99.0077 51.7092 97.9954 53.0905 97.9954 54.662V175.347C97.9954 176.788 99.138 177.979 100.581 178.039L153.353 180.311C155.047 180.381 156.47 179.03 156.47 177.329V36.2445H156.46ZM113.351 122.887C114.303 122.847 115.275 122.416 115.967 121.596C115.967 121.596 122.552 113.868 123.243 113.057C123.464 112.797 123.745 112.657 124.035 112.637C124.326 112.617 124.617 112.707 124.837 112.937C125.479 113.588 132.635 120.855 132.645 120.845C133.427 121.656 134.549 122.036 135.672 121.986L137.276 121.916H137.266L129.017 130.824C126.25 133.807 121.85 133.787 119.234 130.904L112.008 122.937L113.351 122.887Z" fill="#FFE4B8"/>
<path d="M123.244 104.649C123.454 104.87 123.745 104.95 124.035 104.92C124.326 104.89 124.607 104.739 124.837 104.479C125.479 103.708 132.635 95.1103 132.645 95.1203C133.427 94.1694 134.55 93.5789 135.672 93.4187L137.266 93.1885L129.017 85.8115C128.145 85.0307 127.112 84.5803 126.02 84.4402L117.701 99.1742C119.705 101.156 122.782 104.189 123.244 104.649Z" fill="#32BCA9"/>
<path d="M107.247 117.692L109.873 120.595L113.351 120.425C113.571 120.415 113.782 120.365 113.972 120.275C114.132 120.195 114.273 120.084 114.383 119.954C114.383 119.934 120.878 112.237 121.59 111.396C122.251 110.605 123.133 110.165 124.035 110.085C124.927 110.005 125.829 110.295 126.521 110.986C129.117 113.578 131.773 116.201 134.459 118.913C134.59 119.043 134.76 119.144 134.94 119.214C135.161 119.294 135.411 119.324 135.672 119.304L139.912 119.093L145.986 112.537C149.183 109.094 149.183 103.839 145.986 100.986L139.912 95.5611L135.672 96.1317C135.411 96.1717 135.161 96.2418 134.94 96.3619C134.76 96.462 134.59 96.5921 134.459 96.7522C131.773 99.9553 129.117 103.078 126.521 106.151C125.829 106.962 124.927 107.422 124.035 107.512C123.133 107.603 122.251 107.322 121.59 106.652C121.139 106.201 118.382 103.449 116.408 101.477L107.237 117.712L107.247 117.692Z" fill="#32BCA9"/>
<path d="M129.017 130.824L137.266 121.926H137.276L135.672 121.986C134.549 122.036 133.427 121.656 132.645 120.845C132.635 120.865 125.479 113.588 124.837 112.937C124.617 112.717 124.326 112.617 124.035 112.637C123.745 112.657 123.464 112.807 123.243 113.057C122.552 113.868 115.967 121.596 115.967 121.596C115.275 122.416 114.303 122.847 113.351 122.887L112.008 122.937L119.234 130.904C121.85 133.787 126.25 133.797 129.017 130.824Z" fill="#32BCA9"/>
<path d="M99.8094 56.1736V130.844L107.247 117.682L105.232 115.46C102.937 112.927 102.937 108.523 105.232 105.56L109.873 99.5848L113.351 99.1143C113.571 99.0843 113.782 99.0943 113.972 99.1544C114.132 99.2044 114.273 99.2845 114.383 99.4046C114.383 99.4046 115.265 100.295 116.408 101.447L117.691 99.1644C116.688 98.1735 115.947 97.4428 115.947 97.4428C115.265 96.7521 114.293 96.4919 113.34 96.632L111.997 96.8222L119.224 87.5233C121.018 85.2211 123.644 84.1001 126.01 84.4204L153.282 36.1145L138.168 41.2093L136.885 44.7227C136.313 46.2741 135.05 47.4553 133.467 47.9257L118.723 52.2498C116.979 52.7603 115.105 52.3299 113.762 51.1187L112.699 49.8075L101.714 53.511C100.571 53.8914 99.7993 54.9624 99.7993 56.1635L99.8094 56.1736Z" fill="#FFE4B8"/>
<path d="M99.8094 56.1736V130.844L107.247 117.682L105.232 115.46C102.937 112.927 102.937 108.523 105.232 105.56L109.873 99.5848L113.351 99.1143C113.571 99.0843 113.782 99.0943 113.972 99.1544C114.132 99.2044 114.273 99.2845 114.383 99.4046C114.383 99.4046 115.265 100.295 116.408 101.447L117.691 99.1644C116.688 98.1735 115.947 97.4428 115.947 97.4428C115.265 96.7521 114.293 96.4919 113.34 96.632L111.997 96.8222L119.224 87.5233C121.018 85.2211 123.644 84.1001 126.01 84.4204L153.282 36.1145L138.168 41.2093L136.885 44.7227C136.313 46.2741 135.05 47.4553 133.467 47.9257L118.723 52.2498C116.979 52.7603 115.105 52.3299 113.762 51.1187L112.699 49.8075L101.714 53.511C100.571 53.8914 99.7993 54.9624 99.7993 56.1635L99.8094 56.1736Z" fill="#FFF7F8"/>
<path d="M119.234 87.5434L112.008 96.8422L113.351 96.652C114.303 96.5119 115.275 96.7721 115.957 97.4628C115.957 97.4628 116.698 98.1933 117.701 99.1843L126.02 84.4503C123.654 84.13 121.028 85.2512 119.234 87.5534V87.5434Z" fill="#32BCA9"/>
<path d="M119.234 87.5434L112.008 96.8422L113.351 96.652C114.303 96.5119 115.275 96.7721 115.957 97.4628C115.957 97.4628 116.698 98.1933 117.701 99.1843L126.02 84.4503C123.654 84.13 121.028 85.2512 119.234 87.5534V87.5434Z" fill="#32BCA9"/>
<path d="M113.972 99.1644C113.782 99.1043 113.571 99.0943 113.351 99.1243L109.873 99.5948L105.232 105.57C102.937 108.523 102.937 112.937 105.232 115.47L107.247 117.692L116.418 101.457C115.275 100.305 114.393 99.4246 114.393 99.4146C114.283 99.2945 114.142 99.2144 113.982 99.1644H113.972Z" fill="#32BCA9"/>
<path d="M113.972 99.1644C113.782 99.1043 113.571 99.0943 113.351 99.1243L109.873 99.5948L105.232 105.57C102.937 108.523 102.937 112.937 105.232 115.47L107.247 117.692L116.418 101.457C115.275 100.305 114.393 99.4246 114.393 99.4146C114.283 99.2945 114.142 99.2144 113.982 99.1644H113.972Z" fill="#32BCA9"/>
<path d="M161.702 67.3043L161.612 67.8044L161.702 67.8248L170.582 69.5965L170.602 69.4864L170.693 68.9755L170.602 68.9555L161.722 67.1942L161.702 67.3043Z" fill="#554D50"/>
<path d="M122.552 45.8936C122.552 47.1348 123.263 48.1357 124.145 48.1357C125.028 48.1357 125.739 47.1348 125.739 45.8936C125.739 44.6524 125.028 43.6514 124.145 43.6514C123.263 43.6514 122.552 44.6524 122.552 45.8936Z" fill="#F2E8E9"/>
<path d="M166.673 161.774C166.122 161.934 165.671 162.525 165.671 163.085C165.671 163.646 166.132 163.956 166.673 163.776C167.225 163.596 167.656 163.015 167.656 162.464C167.656 161.914 167.225 161.604 166.673 161.764V161.774Z" fill="#554D50"/>
<path d="M166.673 166.879C166.122 167.079 165.671 167.69 165.671 168.25C165.671 168.811 166.132 169.091 166.673 168.891C167.225 168.691 167.656 168.08 167.656 167.53C167.656 166.979 167.225 166.689 166.673 166.879Z" fill="#554D50"/>
<path d="M166.673 171.994C166.122 172.224 165.671 172.865 165.671 173.425C165.671 173.986 166.132 174.246 166.673 174.006C167.225 173.765 167.656 173.135 167.656 172.584C167.656 172.034 167.225 171.774 166.673 171.994Z" fill="#554D50"/>
</svg>
