<svg xmlns="http://www.w3.org/2000/svg" width="24" height="24" viewBox="0 0 24 24" fill="#1A1A1A"><path d="M13.16 13.07C14.38 13.06 15.38 13.94 15.38 15.04C15.38 16.16 14.38 17.07 13.15 17.09C11.73 17.11 10.36 16.61 9.33 15.7C8.32 14.82 7.75 13.58 7.76 12.29C7.76 10.99 8.34 9.74 9.35 8.84C10.37 7.89 11.74 7.36 13.17 7.34C14.39 7.32 15.4 8.2 15.39 9.31C15.38 10.42 14.39 11.34 13.16 11.36C12.91 11.36 12.67 11.45 12.49 11.62C12.32 11.78 12.21 12 12.21 12.23C12.21 12.45 12.31 12.67 12.49 12.83C12.67 12.99 12.91 13.08 13.16 13.07Z"/><path fill-rule="evenodd" d="M12 2C6.48 2 2 6.48 2 12C2 17.52 6.48 22 12 22C17.52 22 22 17.52 22 12C22 6.48 17.52 2 12 2ZM4 12C4 7.58 7.58 4 12 4C16.42 4 20 7.58 20 12C20 16.42 16.42 20 12 20C7.58 20 4 16.42 4 12Z"/></svg>
