<svg width="200" height="200" viewBox="0 0 200 200" fill="none" xmlns="http://www.w3.org/2000/svg">
<path d="M57.31 121.35C62.66 135.23 73.48 146.2 87 151.43C101.09 157.24 116.66 157.25 130.87 151.49C136.92 148.73 147.69 139.57 144.67 124.88C144.46 123.87 145.11 122.87 146.13 122.67C146.15 122.67 146.16 122.67 146.18 122.67C146.1 122.45 146.03 122.24 145.95 122.02C145.94 122 145.97 121.98 145.98 122C146 122.02 146.03 122 146.02 121.98C141.29 110.04 127.33 104.3 114.82 109.33C112.27 110.4 109.33 110.4 106.79 109.33C104.24 108.25 102.4 106.27 101.33 103.73C100.26 101.19 100.49 98.2802 101.53 95.9602C102.45 94.1902 103.73 92.6502 105.29 91.5102C105.25 91.4302 105.19 91.3701 105.16 91.2802C104.78 90.3202 105.24 89.2301 106.21 88.8401C112.11 86.4801 122.8 78.3402 121 64.3902C120.87 63.3602 121.59 62.4202 122.62 62.2902C122.66 62.2902 122.7 62.2902 122.74 62.2902C122.49 61.1602 122.15 60.0402 121.72 58.9402C117.08 46.6802 103.02 41.0902 90.4599 46.1402C75.7399 51.9902 63.88 63.3802 57.33 77.7402C50.99 91.1802 50.0999 106.41 54.9499 120.28C55.9099 119.94 56.96 120.41 57.33 121.37L57.31 121.35ZM74.58 65.6802C84.97 56.2302 93.5801 58.3802 96.5901 60.6302C99.1501 63.4702 101.88 69.8102 92.28 72.4702C80.28 75.8002 72.5201 79.6301 72.1101 88.5602C71.7001 97.4902 66.71 129.9 61.5 113.86C56.28 97.8202 64.19 75.1302 74.58 65.6802Z" fill="#A14000"/>
<path d="M72.1101 88.5602C72.5201 79.6301 80.28 75.8002 92.28 72.4702C101.88 69.8002 99.1501 63.4602 96.5901 60.6302C93.5801 58.3702 84.97 56.2202 74.58 65.6802C64.19 75.1302 56.28 97.8202 61.5 113.86C66.71 129.9 71.7001 97.4902 72.1101 88.5602Z" fill="#F57A00"/>
<path d="M146.17 122.65C146.17 122.65 146.14 122.65 146.12 122.65C145.11 122.86 144.45 123.85 144.66 124.86C147.68 139.55 136.91 148.71 130.86 151.47C116.65 157.24 101.08 157.22 86.99 151.41C73.47 146.17 62.6501 135.21 57.3001 121.33C56.9301 120.38 55.8799 119.9 54.9199 120.24C54.9099 120.24 54.8901 120.24 54.8801 120.25C53.9101 120.62 53.4301 121.71 53.8001 122.67C59.5301 137.54 71.1301 149.29 85.5901 154.89C93.0801 157.98 100.98 159.53 108.91 159.53C116.84 159.53 124.75 157.99 132.34 154.91C139.4 151.69 151.83 141.11 148.33 124.1C148.12 123.1 147.15 122.46 146.16 122.64L146.17 122.65Z" fill="#640B08"/>
<path d="M120.98 64.3702C122.79 78.3302 112.1 86.4702 106.19 88.8202C105.23 89.2002 104.76 90.2902 105.14 91.2602C105.17 91.3402 105.23 91.4102 105.27 91.4902C105.61 92.0802 106.22 92.4501 106.88 92.4501C107.11 92.4501 107.35 92.4102 107.57 92.3202C114.41 89.5902 126.79 80.1402 124.69 63.9002C124.56 62.9102 123.7 62.2102 122.71 62.2802C122.67 62.2802 122.63 62.2802 122.59 62.2802C121.56 62.4102 120.84 63.3502 120.97 64.3802L120.98 64.3702Z" fill="#640B08"/>
<path d="M40.6001 64.4102C40.6001 71.1602 36.35 73.8402 34.23 74.3202C40.6 75.0702 40.3701 88.6902 40.3701 88.6902C40.3701 88.6902 40.74 83.4802 42.25 79.5202C43.76 75.5502 46.74 74.3102 46.74 74.3102C41.07 73.0702 40.6001 64.4002 40.6001 64.4002V64.4102Z" fill="#FCA823"/>
<path d="M56.1799 30.3102C46.2299 28.1402 45.4199 12.9102 45.4199 12.9102C45.4199 24.7402 37.96 29.4402 34.23 30.3102C45.42 31.6102 44.99 55.5302 44.99 55.5302C44.99 55.5302 45.6501 46.4002 48.3101 39.4402C50.9501 32.4802 56.1799 30.3102 56.1799 30.3102Z" fill="#FCA823"/>
<path d="M19.5 36.3502C19.5 45.1702 13.9502 48.6702 11.1602 49.3202C19.5002 50.3002 19.1899 68.1202 19.1899 68.1202C19.1899 68.1202 19.6902 61.3102 21.6602 56.1302C23.6302 50.9502 27.53 49.3202 27.53 49.3202C20.12 47.7002 19.5 36.3502 19.5 36.3502Z" fill="#FCA823"/>
</svg>
